<svg width="24" height="24" viewBox="0 0 24 24" fill="none" xmlns="http://www.w3.org/2000/svg">
<path fill-rule="evenodd" clip-rule="evenodd" d="M12.6057 22.1433C14.466 20.4904 19.9675 15.136 19.9675 9.61852C19.9675 5.21784 16.4 1.65039 11.9994 1.65039C7.5987 1.65039 4.03125 5.21784 4.03125 9.61852C4.03125 15.136 9.53274 20.4904 11.3931 22.1433C11.744 22.4551 12.2548 22.4551 12.6057 22.1433ZM11.9978 12.3915C13.5291 12.3915 14.7704 11.1501 14.7704 9.61884C14.7704 8.08757 13.5291 6.84623 11.9978 6.84623C10.4665 6.84623 9.22516 8.08757 9.22516 9.61884C9.22516 11.1501 10.4665 12.3915 11.9978 12.3915Z" fill="#FDCB02"/>
</svg>
