<svg width="213" height="136" viewBox="0 0 213 136" fill="none" xmlns="http://www.w3.org/2000/svg">
<path opacity="0.5" d="M196.397 118.684C207.997 108.66 208.597 78.9012 201.089 72.9494C193.775 64.8425 183.495 62.3992 177.827 53.0643C172.734 44.6692 174.548 34.2067 171.995 24.7089C169.442 15.2111 157.691 7.27326 152.912 4.97413C139.967 -1.2533 126.54 -0.990303 114.02 7.27326C104.635 13.4694 100.112 24.784 92.4846 33.0663C85.9052 40.1692 77.1661 44.8958 67.6266 46.5111C59.2488 47.9019 50.4769 46.8369 42.3619 49.3429C30.4365 53.0267 21.8397 64.1158 18.3985 76.1259C15.6393 85.7301 15.7895 96.318 19.7688 105.477C23.748 114.637 31.7629 122.18 41.4359 124.655C60.5439 129.541 79.3705 114.756 99.098 114.725C115.71 114.725 130.538 125.081 146.874 128.119C163.211 131.158 183.658 129.692 196.397 118.684Z" fill="#FFEEBA"/>
<path d="M153.652 110.726H170.47M153.652 102.309H170.47M157.533 106.841H174.351" stroke="#6F6F6F" stroke-width="1.29966" stroke-linecap="round"/>
<path d="M122.604 25.0903H50.159C46.8546 25.0903 44.1758 27.7719 44.1758 31.0799V129.237C44.1758 132.545 46.8546 135.227 50.159 135.227H122.604C125.909 135.227 128.588 132.545 128.588 129.237V31.0799C128.588 27.7719 125.909 25.0903 122.604 25.0903Z" fill="white"/>
<path d="M62.0617 12.1759C63.2758 12.1759 64.2601 11.1894 64.2601 9.97249C64.2601 8.75556 63.2758 7.76904 62.0617 7.76904C60.8475 7.76904 59.8633 8.75556 59.8633 9.97249C59.8633 11.1894 60.8475 12.1759 62.0617 12.1759Z" stroke="#FFE371" stroke-width="1.29966" stroke-miterlimit="10"/>
<path d="M3.19841 80.8141C4.41256 80.8141 5.39683 79.8276 5.39683 78.6107C5.39683 77.3937 4.41256 76.4072 3.19841 76.4072C1.98426 76.4072 1 77.3937 1 78.6107C1 79.8276 1.98426 80.8141 3.19841 80.8141Z" stroke="#F8D05F" stroke-width="1.29966" stroke-miterlimit="10"/>
<path d="M38.5156 12.5317H43.8729" stroke="#FFE371" stroke-width="1.29966" stroke-miterlimit="10" stroke-linecap="round"/>
<path d="M41.3281 9.71729V15.0868" stroke="#FFE371" stroke-width="1.29966" stroke-miterlimit="10" stroke-linecap="round"/>
<path d="M43.6914 31.1057C43.6914 27.5168 46.6008 24.6074 50.1897 24.6074H122.575C126.164 24.6074 129.074 27.5168 129.074 31.1057V44.033H43.6914V31.1057Z" fill="#FFE371"/>
<g clip-path="url(#clip0_2169_10611)">
<path d="M128.588 82.882V31.0804C128.588 27.7724 125.909 25.0908 122.604 25.0908H50.159C46.8546 25.0908 44.1758 27.7724 44.1758 31.0804V112.668M128.588 92.271V129.238C128.588 132.546 125.909 135.228 122.604 135.228H50.159C46.8546 135.228 44.1758 132.546 44.1758 129.238V122.057" stroke="#6F6F6F" stroke-width="1.29966" stroke-linecap="round" stroke-linejoin="round"/>
<path d="M52.1016 44.0312L107.729 44.0313L52.1016 44.0312Z" fill="white"/>
<path d="M52.1016 44.0312L107.729 44.0313" stroke="#6F6F6F" stroke-width="1.29966" stroke-linecap="round" stroke-linejoin="round"/>
<path d="M112.347 44.1353H111.609H112.347Z" fill="white"/>
<path d="M112.347 44.1353H111.609" stroke="#6F6F6F" stroke-width="1.29966" stroke-linecap="round" stroke-linejoin="round"/>
<path d="M115.188 44.1353H128.415H115.188Z" fill="white"/>
<path d="M115.188 44.1353H128.415" stroke="#6F6F6F" stroke-width="1.29966" stroke-linecap="round" stroke-linejoin="round"/>
<ellipse cx="76.6827" cy="70.5793" rx="1.9405" ry="1.94256" fill="#6F6F6F"/>
<path d="M67.3257 62.9637C67.3028 64.1055 66.3326 65.4005 64.6906 65.2404" stroke="#6F6F6F" stroke-width="1.29966" stroke-linecap="round"/>
<path d="M84.9438 62.8094C84.9667 63.9512 85.937 65.2462 87.5789 65.0861" stroke="#6F6F6F" stroke-width="1.29966" stroke-linecap="round"/>
<path d="M76.6836 78.0259V72.1982" stroke="#6F6F6F" stroke-width="1.29966" stroke-linecap="round"/>
<path d="M76.6836 79.6452V80.292" stroke="#6F6F6F" stroke-width="1.29966" stroke-linecap="round"/>
<circle cx="68.0607" cy="68.4689" r="0.974747" fill="#6F6F6F"/>
<circle cx="84.9552" cy="68.4689" r="0.974747" fill="#6F6F6F"/>
</g>
<ellipse cx="131.016" cy="107.486" rx="15.524" ry="15.5405" fill="white"/>
<path d="M135.875 92.7215C134.346 92.2178 132.713 91.9453 131.016 91.9453C122.443 91.9453 115.492 98.903 115.492 107.486C115.492 116.069 122.443 123.026 131.016 123.026C139.59 123.026 146.54 116.069 146.54 107.486C146.54 103.282 144.873 99.4685 142.165 96.6711" stroke="#6F6F6F" stroke-width="1.29966" stroke-linecap="round"/>
<path d="M143.43 117.397L146.353 120.333C147.082 121.065 147.08 122.249 146.349 122.978V122.978V122.978C145.618 123.708 144.435 123.706 143.706 122.974L140.783 120.038" stroke="#6F6F6F" stroke-width="1.29966"/>
<path d="M131.341 119.788C137.95 119.788 143.308 114.425 143.308 107.809C143.308 105.751 142.79 103.815 141.876 102.123M135.317 96.5072C134.073 96.0686 132.735 95.8301 131.341 95.8301C125.787 95.8301 121.117 99.6183 119.768 104.755C119.511 105.73 119.375 106.754 119.375 107.809C119.375 109.534 119.739 111.173 120.394 112.654" stroke="#6F6F6F" stroke-width="1.29966" stroke-linecap="round"/>
<rect width="17.3859" height="5.72635" rx="2.86318" transform="matrix(0.705619 0.708592 -0.707844 0.706369 147.211 119.636)" fill="white"/>
<rect width="16.2516" height="4.58206" rx="2.29103" transform="matrix(0.705619 0.708592 -0.707844 0.706369 147.211 119.636)" fill="#FFE371"/>
<rect width="17.3859" height="5.72635" rx="2.86318" transform="matrix(0.705619 0.708592 -0.707844 0.706369 147.211 119.636)" stroke="#6F6F6F" stroke-width="1.29966"/>
<ellipse cx="137.483" cy="97.4494" rx="0.646834" ry="0.323417" fill="#6F6F6F"/>
<defs>
<clipPath id="clip0_2169_10611">
<rect width="85.3821" height="111.108" fill="white" transform="translate(43.6914 24.6074)"/>
</clipPath>
</defs>
</svg>
