<svg width="130" height="130" viewBox="0 0 130 130" fill="none" xmlns="http://www.w3.org/2000/svg">
<circle cx="50.4045" cy="49.8986" r="31.2424" fill="white"/>
<path d="M60.0648 20.2167C56.989 19.2041 53.7021 18.6562 50.2873 18.6562C33.0326 18.6562 19.0449 32.6439 19.0449 49.8986C19.0449 67.1533 33.0326 81.141 50.2873 81.141C67.542 81.141 81.5296 67.1533 81.5296 49.8986C81.5296 41.4479 78.1744 33.7808 72.7235 28.1568" stroke="#6F6F6F" stroke-width="2" stroke-linecap="round"/>
<path d="M75.0469 69.6211L80.9069 75.4996C82.3673 76.9646 82.3636 79.3361 80.8986 80.7966V80.7966V80.7966C79.4336 82.257 77.0621 82.2532 75.6017 80.7882L69.7416 74.9097" stroke="#6F6F6F" stroke-width="2"/>
<path d="M50.4041 74.111C63.7117 74.111 74.4997 63.3231 74.4997 50.0155C74.4997 45.8762 73.456 41.9807 71.6173 38.5778M58.4102 27.2819C55.9053 26.3998 53.2108 25.9199 50.4041 25.9199C39.2199 25.9199 29.8154 33.5399 27.099 43.8714C26.5833 45.8329 26.3086 47.8921 26.3086 50.0155C26.3086 53.4839 27.0414 56.7812 28.3607 59.7609" stroke="#6F6F6F" stroke-width="2" stroke-linecap="round"/>
<rect x="82.625" y="74.1113" width="34.8332" height="11.473" rx="5.73648" transform="rotate(45.0901 82.625 74.1113)" fill="white"/>
<rect x="82.625" y="74.1113" width="32.5606" height="9.18033" rx="4.59016" transform="rotate(45.0901 82.625 74.1113)" fill="#FFEEBA"/>
<rect x="82.625" y="74.1113" width="34.8332" height="11.473" rx="5.73648" transform="rotate(45.0901 82.625 74.1113)" stroke="#6F6F6F" stroke-width="2"/>
<circle cx="62.6953" cy="29.5566" r="1" fill="#6F6F6F"/>
</svg>
