<svg width="160" height="160" viewBox="0 0 160 160" fill="none" xmlns="http://www.w3.org/2000/svg">
<path fill-rule="evenodd" clip-rule="evenodd" d="M88.9405 109.679C81.9168 105.357 75.3828 100.269 69.4553 94.508C65.2881 90.3589 61.5501 85.3008 59.6154 79.721C56.1338 68.8969 57.7869 55.4508 69.4552 52.8383C80.3334 50.4027 87.0386 58.4284 89.7012 64.8556C92.3894 58.4284 99.1231 50.4022 109.976 52.8383C121.357 56.5055 123.294 68.8969 119.812 79.721C117.877 85.3008 114.144 90.3589 109.976 94.508C104.049 100.269 97.5148 105.357 90.4911 109.679L89.7304 110.153L88.9405 109.679Z" fill="#FFEEBA"/>
<path d="M102.53 102.229C99.1063 104.902 95.5367 107.383 91.8366 109.66L91.0444 110.153L90.2218 109.66C82.9072 105.158 76.1026 99.8602 69.9298 93.8604C65.5899 89.5395 61.6972 84.2719 59.6823 78.4611C56.0566 67.1888 57.7781 53.1859 69.9296 50.4652C81.2583 47.9287 88.2411 56.2867 91.014 62.9801C93.8135 56.2867 100.826 47.9282 112.129 50.4652C123.981 54.2842 125.997 67.1888 122.372 78.4611C120.565 83.6713 117.252 88.4448 113.458 92.4906" stroke="#6F6F6F" stroke-width="2" stroke-linecap="round" stroke-linejoin="round"/>
<path fill-rule="evenodd" clip-rule="evenodd" d="M73.2217 116.66C65.9072 112.158 59.1025 106.86 52.9297 100.86C48.5899 96.5395 44.6971 91.2719 42.6823 85.4611C39.0565 74.1888 40.7781 60.1859 52.9295 57.4652C64.2582 54.9287 71.241 63.2867 74.0139 69.9801C76.8134 63.2867 83.826 54.9282 95.1286 57.4652C106.981 61.2842 108.997 74.1888 105.372 85.4611C103.357 91.2719 99.4684 96.5395 95.1286 100.86C88.9557 106.86 82.1511 112.158 74.8365 116.66L74.0443 117.153L73.2217 116.66Z" fill="white"/>
<path fill-rule="evenodd" clip-rule="evenodd" d="M71.6721 116.683C64.7093 112.398 58.232 107.355 52.356 101.644C48.2248 97.5306 44.5193 92.5163 42.6014 86.9849C39.15 76.2547 40.7887 62.9252 52.3558 60.3354C63.1397 57.9209 69.7867 65.877 72.4262 72.2484C75.0911 65.877 81.7664 57.9204 92.5255 60.3354C103.808 63.9707 105.727 76.2547 102.276 86.9849C100.358 92.5163 96.6565 97.5306 92.5254 101.644C86.6494 107.355 80.172 112.398 73.2093 116.683L72.4552 117.153L71.6721 116.683Z" fill="#FFE371"/>
<path d="M41.2971 71C41.0267 72.7736 40.9459 74.6259 41.0343 76.5C41.1761 79.5092 41.7539 82.5747 42.6823 85.4611C44.6972 91.2719 48.5899 96.5395 52.9298 100.86C59.1026 106.86 65.9072 112.158 73.2218 116.66L74.0444 117.153L74.8366 116.66C82.1512 112.158 88.9558 106.86 95.1287 100.86C99.4685 96.5395 103.357 91.2719 105.372 85.4611C106.41 82.2332 106.986 78.8714 107 75.6275C107.012 72.9585 106.644 70.3693 105.841 68C104.213 63.1927 100.795 59.2908 95.1287 57.4652C83.8261 54.9282 76.8135 63.2867 74.014 69.9801C71.2411 63.2867 64.2583 54.9287 52.9296 57.4652C49.0812 58.3269 46.2788 60.3202 44.3612 63" stroke="#6F6F6F" stroke-width="2" stroke-linecap="round" stroke-linejoin="round"/>
<path d="M89.3516 67.5261C94.924 66.8297 98.4067 72.4018 97.7101 77.2777" stroke="#6F6F6F" stroke-width="2" stroke-linecap="round" stroke-linejoin="round"/>
<circle cx="109" cy="97" r="1" fill="#6F6F6F"/>
</svg>
