<svg width="32" height="33" viewBox="0 0 32 33" fill="none" xmlns="http://www.w3.org/2000/svg">
<rect x="-0.266129" y="0.266129" width="31.4677" height="32.4677" rx="3.99194" transform="matrix(-1 0 0 1 31.4677 0)" fill="white" stroke="#FDCB02" stroke-width="0.532258"/>
<path d="M19.6536 10.2253C19.7187 10.1603 19.8242 10.1603 19.8893 10.2253L22.0274 12.3634C22.0925 12.4285 22.0925 12.534 22.0274 12.5991L13.0679 21.5586C13.0384 21.5881 12.999 21.6055 12.9574 21.6073L10.7207 21.7059C10.623 21.7102 10.5426 21.6298 10.5469 21.532L10.6455 19.2954C10.6473 19.2538 10.6647 19.2143 10.6941 19.1849L19.6536 10.2253Z" stroke="#FDCB02"/>
<path d="M17.8027 11.5063L20.5318 14.2355" stroke="#FDCB02"/>
<path d="M14.666 22L21.9993 22" stroke="#FDCB02" stroke-linecap="round"/>
</svg>
