<svg width="40" height="40" viewBox="0 0 40 40" fill="none" xmlns="http://www.w3.org/2000/svg">
<path fill-rule="evenodd" clip-rule="evenodd" d="M20.0007 16.289C20.6408 16.289 21.1597 16.7916 21.1597 17.4117V23.3992C21.1597 24.0192 20.6408 24.5218 20.0007 24.5218C19.3605 24.5218 18.8416 24.0192 18.8416 23.3992V17.4117C18.8416 16.7916 19.3605 16.289 20.0007 16.289Z" fill="#3D3D3D"/>
<path d="M21.5461 27.8898C21.5461 28.7165 20.8542 29.3867 20.0007 29.3867C19.1471 29.3867 18.4552 28.7165 18.4552 27.8898C18.4552 27.0631 19.1471 26.3929 20.0007 26.3929C20.8542 26.3929 21.5461 27.0631 21.5461 27.8898Z" fill="#3D3D3D"/>
<path fill-rule="evenodd" clip-rule="evenodd" d="M16.5641 6.76541C18.2242 4.41153 21.7771 4.41153 23.4372 6.76541C25.4958 9.68429 28.4095 13.9302 30.3589 17.2594C32.4052 20.7543 34.735 25.538 36.2852 28.8351C37.5054 31.4304 35.6645 34.3718 32.7321 34.5403C29.1194 34.7479 23.9289 35 20.0007 35C16.0724 35 10.8819 34.7479 7.26916 34.5403C4.33684 34.3718 2.4959 31.4304 3.71609 28.8352C5.26631 25.538 7.59612 20.7543 9.64244 17.2594C11.5918 13.9302 14.5055 9.68429 16.5641 6.76541ZM21.523 8.03189C20.7834 6.98313 19.2179 6.98313 18.4783 8.03189C16.4224 10.947 13.5566 15.1261 11.6589 18.3671C9.66728 21.7685 7.37357 26.4738 5.8258 29.7657C5.28299 30.9202 6.09231 32.2234 7.40645 32.2989C11.0152 32.5063 16.1466 32.7547 20.0007 32.7547C23.8547 32.7547 28.9861 32.5063 32.5948 32.2989C33.909 32.2234 34.7183 30.9202 34.1755 29.7657C32.6277 26.4737 30.334 21.7685 28.3424 18.3671C26.4447 15.1261 23.5789 10.947 21.523 8.03189Z" fill="#3D3D3D"/>
</svg>
